<svg width="401" height="448" viewBox="0 0 401 448" fill="none" xmlns="http://www.w3.org/2000/svg">
<g id="caffe-cup">
<path id="cup" d="M397.47 341.436C389.27 318.336 362.07 297.936 321.77 284.036L335.07 276.636C357.07 267.336 370.67 252.536 374.17 233.836C377.47 217.936 371.67 203.436 358.97 195.836C348.57 189.636 335.97 189.136 324.27 194.036V182.436C324.27 171.936 317.57 156.936 285.57 145.236C262.97 137.036 232.77 132.436 200.47 132.436C168.17 132.436 137.97 136.936 115.37 145.236C83.3699 156.936 76.6699 171.936 76.6699 182.436V232.336C76.6699 249.436 80.0699 265.936 86.6699 281.136C42.2699 294.936 12.2699 316.636 3.56994 341.236C-1.53006 355.636 0.869946 370.336 10.4699 383.836C23.0699 402.836 48.1699 418.936 83.2699 430.236C117.17 441.236 157.67 447.036 200.47 447.036C243.27 447.036 283.77 441.236 317.67 430.236C352.77 418.936 377.87 402.836 390.47 383.836C400.17 370.436 402.57 355.736 397.47 341.436ZM324.47 232.336V211.136C333.17 205.036 343.47 204.036 351.37 208.736C358.57 213.036 361.57 221.136 359.57 230.836V230.936C356.97 244.736 346.67 255.536 329.07 262.836C328.77 262.936 328.57 263.036 328.27 263.236L319.17 268.336C322.67 256.836 324.47 244.736 324.47 232.336ZM120.67 159.336C141.67 151.636 170.07 147.436 200.67 147.436C231.27 147.436 259.67 151.636 280.67 159.336C298.77 165.936 309.47 174.536 309.47 182.436C309.47 188.236 302.37 195.036 289.37 200.936C289.17 200.536 288.97 200.236 288.77 199.836C275.57 181.736 233.17 173.636 196.97 173.636C196.87 173.636 196.77 173.636 196.77 173.636C162.67 174.736 123.17 182.536 112.37 201.036C99.0699 195.036 91.8699 188.236 91.8699 182.336C91.7699 174.536 102.57 165.936 120.67 159.336ZM274.47 206.536C256.07 212.236 230.97 216.236 200.57 216.236C170.27 216.136 145.17 212.136 126.87 206.536C134.77 198.236 161.17 189.836 196.97 188.736C234.67 188.736 264.57 197.436 274.47 206.536ZM91.7699 206.736C97.4699 210.836 105.17 214.836 115.47 218.536C138.17 226.636 168.37 231.136 200.57 231.136C232.67 231.136 262.87 226.636 285.67 218.536C296.07 214.836 303.67 210.836 309.37 206.736V232.436C309.37 292.236 260.57 341.036 200.57 341.036C140.57 341.036 91.7699 292.336 91.7699 232.436V206.736V206.736ZM149.37 345.079C165.243 352.25 182.608 356.035 200.57 356.035C218.57 356.035 235.97 352.235 251.87 345.035V360.535C220.67 378.735 180.47 378.735 149.37 360.535V345.079ZM378.27 375.336C378.17 375.436 378.17 375.536 378.07 375.536C356.27 408.836 283.17 432.036 200.57 432.036C117.87 432.036 44.8699 408.736 23.0699 375.536C22.9699 375.436 22.9699 375.336 22.8699 375.336C16.0699 365.836 14.3699 356.036 17.7699 346.336C24.8699 326.136 53.0699 307.036 93.5699 294.836C98.7699 303.736 105.17 312.136 112.67 319.636C119.27 326.236 126.47 332.036 134.27 336.936V364.736C134.27 367.336 135.57 369.636 137.67 371.036C156.47 383.136 178.47 389.136 200.47 389.136C222.47 389.136 244.47 383.136 263.27 371.036C265.37 369.636 266.67 367.236 266.67 364.736V336.936C274.37 332.036 281.67 326.236 288.27 319.636C295.67 312.236 301.97 303.936 307.17 295.136C347.77 307.336 375.97 326.336 383.17 346.436C386.77 356.136 385.07 365.836 378.27 375.336Z" fill="black"/>
<path id="smoke2" d="M166.87 106.236C168.07 106.236 169.27 106.036 170.37 105.236C173.97 103.236 175.37 98.636 173.37 95.036C170.17 89.236 166.07 78.836 166.67 74.736C166.77 74.536 166.77 74.436 166.77 74.236C167.27 68.536 171.87 63.536 177.27 57.736C183.37 51.236 190.17 43.836 191.77 33.636C191.87 33.336 191.87 32.936 191.87 32.536C191.87 22.436 183.77 7.03603 182.17 4.03603C180.17 0.436026 175.57 -0.963974 171.97 1.03603C168.37 3.03603 166.97 7.63604 168.97 11.236C172.07 17.136 176.47 27.236 176.77 32.136C175.67 37.536 171.17 42.536 166.27 47.736C159.97 54.536 152.77 62.236 151.87 73.036C150.57 83.636 158.67 99.336 160.27 102.336C161.57 104.836 164.17 106.236 166.87 106.236Z" fill="black"/>
<path id="smoke1" d="M234.37 106.236C235.67 106.236 237.07 105.936 238.27 105.036C241.77 102.836 242.87 98.2361 240.67 94.7361C236.67 88.1361 232.47 78.3361 232.97 74.7361C233.07 74.5361 233.07 74.4361 233.07 74.2361C233.57 68.8361 238.37 63.636 243.57 58.236C249.97 51.536 257.17 43.936 258.07 33.236C259.47 22.3361 250.17 6.63604 248.27 3.53604C246.07 0.0360382 241.47 -1.06399 237.97 1.13601C234.47 3.33601 233.37 7.93606 235.57 11.4361C239.57 18.0361 243.77 27.8361 243.27 31.4361C243.17 31.6361 243.17 31.7361 243.17 31.9361C242.67 37.3361 237.87 42.5361 232.67 47.9361C226.27 54.6361 219.07 62.2361 218.17 72.9361C216.77 83.8361 226.07 99.536 227.97 102.636C229.37 104.936 231.87 106.236 234.37 106.236Z" fill="black"/>
</g>
</svg>
