<svg
      width="1999"
      height="1890"
      viewBox="0 0 799 690"
      fill="none"
      xmlns="http://www.w3.org/2000/svg"
    >
      <path
        id="Vector_19"
        d="M94.5802 230.113C138.399 230.113 173.921 194.592 173.921 150.773C173.921 106.955 138.399 71.4326 94.5802 71.4326C50.7617 71.4326 15.2397 106.955 15.2397 150.773C15.2397 194.592 50.7617 230.113 94.5802 230.113Z"
        fill="#38D39F"
      />
      <path
        id="Vector_20"
        d="M122.229 56.4899C115.045 55.5763 107.774 55.5763 100.59 56.4899C84.586 58.5913 69.5203 65.2398 57.181 75.6465C44.8417 86.0532 35.7467 99.7813 30.9754 115.202C28.8053 122.229 27.5764 129.514 27.3208 136.864C27.2848 137.886 27.2607 138.92 27.2607 139.954C27.283 162.264 36.1559 183.655 51.932 199.431C67.7082 215.207 89.0989 224.08 111.41 224.103C113.201 224.103 114.992 224.042 116.759 223.934C120.907 223.674 125.03 223.103 129.093 222.227C148.495 218.055 165.798 207.161 177.947 191.468C190.095 175.776 196.308 156.295 195.487 136.467C194.665 116.638 186.863 97.738 173.459 83.1039C160.054 68.4698 141.909 59.0435 122.229 56.4899H122.229ZM137.748 217.347H137.736C130.959 219.659 123.905 221.062 116.759 221.518C114.992 221.638 113.201 221.698 111.41 221.698C89.7377 221.672 68.961 213.051 53.6367 197.727C38.3123 182.402 29.6914 161.626 29.6649 139.954C29.6649 138.92 29.689 137.886 29.725 136.864C30.5514 115.744 39.5156 95.7617 54.7411 81.1008C69.9666 66.44 90.273 58.237 111.41 58.2089C130.776 58.21 149.513 65.0865 164.283 77.6131C179.052 90.1398 188.895 107.503 192.057 126.61C195.219 145.716 191.496 165.325 181.55 181.942C171.604 198.559 156.081 211.106 137.748 217.347H137.748Z"
        fill="#3F3D56"
      />
      <path
        id="Vector_21"
        d="M112.612 63.0176H110.208V79.8474H112.612V63.0176Z"
        fill="#3F3D56"
      />
      <path
        id="Vector_22"
        d="M57.8578 84.7018L56.1577 86.4019L68.0582 98.3023L69.7582 96.6022L57.8578 84.7018Z"
        fill="#3F3D56"
      />
      <path
        id="Vector_23"
        d="M34.4736 138.751V141.156H51.3034V138.751H34.4736Z"
        fill="#3F3D56"
      />
      <path
        id="Vector_24"
        d="M56.1578 193.506L57.8579 195.206L69.7584 183.306L68.0583 181.606L56.1578 193.506Z"
        fill="#3F3D56"
      />
      <path
        id="Vector_25"
        d="M153.062 96.6022L154.762 98.3022L166.662 86.4018L164.962 84.7017L153.062 96.6022Z"
        fill="#3F3D56"
      />
      <path
        id="Vector_26"
        d="M171.516 138.751V141.156H188.346V138.751H171.516Z"
        fill="#3F3D56"
      />
      <path
        id="Vector_27"
        d="M154.762 181.605L153.062 183.305L164.962 195.206L166.662 193.506L154.762 181.605Z"
        fill="#3F3D56"
      />
      <path
        id="Vector_28"
        d="M112.612 200.06H110.208V216.89H112.612V200.06Z"
        fill="#3F3D56"
      />
      <path
        id="Vector_29"
        d="M115.016 135.145C113.976 134.365 112.711 133.943 111.41 133.943C110.11 133.943 108.844 134.365 107.804 135.145C107.091 135.686 106.505 136.375 106.085 137.165C105.552 138.181 105.322 139.329 105.421 140.473C105.52 141.616 105.944 142.707 106.644 143.617C107.343 144.527 108.288 145.218 109.368 145.608C110.447 145.997 111.616 146.07 112.735 145.817C113.855 145.564 114.878 144.996 115.685 144.179C116.492 143.363 117.048 142.333 117.288 141.21C117.528 140.088 117.441 138.92 117.039 137.846C116.636 136.771 115.935 135.834 115.017 135.145H115.016ZM111.41 143.56C110.454 143.557 109.539 143.176 108.863 142.501C108.187 141.825 107.807 140.909 107.804 139.954C107.808 139.224 108.03 138.513 108.441 137.91C108.793 137.4 109.271 136.989 109.828 136.718C110.386 136.446 111.004 136.323 111.623 136.361C112.241 136.398 112.84 136.594 113.361 136.931C113.881 137.267 114.307 137.732 114.595 138.281C114.883 138.83 115.025 139.444 115.007 140.063C114.989 140.683 114.811 141.287 114.491 141.818C114.17 142.349 113.719 142.788 113.179 143.093C112.639 143.398 112.03 143.559 111.41 143.56V143.56Z"
        fill="#3F3D56"
      />
      <path
        id="Vector_30"
        d="M122.229 35.3687H100.591V57.007H122.229V35.3687Z"
        fill="#3F3D56"
      />
      <path
        id="Vector_31"
        d="M111.41 38.9748C127.344 38.9748 140.261 34.4 140.261 28.7567C140.261 23.1134 127.344 18.5386 111.41 18.5386C95.4757 18.5386 82.5586 23.1134 82.5586 28.7567C82.5586 34.4 95.4757 38.9748 111.41 38.9748Z"
        fill="#3F3D56"
      />
      <path id="clock-arrow" d="M115 86H108V135H115V86Z" fill="#3F3D56" />
      <path
        id="Vector_32"
        d="M226 220.44H0V222.844H226V220.44Z"
        fill="#3F3D56"
      />
    </svg>