<svg width="119" height="177" viewBox="0 0 119 177" fill="none" xmlns="http://www.w3.org/2000/svg">
<mask id="path-1-inside-1" fill="white">
<path fill-rule="evenodd" clip-rule="evenodd" d="M94.251 176.142C98.3558 176.142 101.795 173.035 102.21 168.952L118.5 8.80958C118.979 4.0955 115.279 0 110.541 0H8.00093C3.22234 0 -0.490474 4.16192 0.0527949 8.90951L18.3779 169.052C18.8402 173.092 22.2596 176.142 26.326 176.142H94.251ZM66.963 129C61.2917 124.71 58.9519 119.165 58.9519 115.298H58.9439V106.175C58.9439 100.147 53.1446 95.2601 45.9934 95.2601H35.7065C34.0187 95.2601 32.4469 94.4873 31.615 93.2452C30.7791 91.9999 30.8031 90.471 31.679 89.2459L37.7503 80.7409L44.7535 84.3521L40.7739 70.4303L24.2518 73.7816L30.919 77.2174L24.8197 85.7663C23.6039 87.4639 22.9999 89.3741 22.9999 91.2878C22.9999 97.2176 28.7113 102 35.7145 102H46.2493C48.8451 102 50.9968 103.782 50.9968 105.962V115.298C50.9968 119.445 48.945 125.274 42.9337 129H66.963ZM58.9599 54.75C57.3241 54.75 55.7763 55.4891 54.9324 56.6737L48.0731 66.2858L41.2419 62.7622L48.0651 53.1941C50.3689 49.971 54.5044 48.0034 58.9639 48C63.4194 48 67.555 49.9676 69.8587 53.1874L75.6861 61.3312L82.5573 57.6795L78.8017 71.6452L62.2196 68.4829L68.9068 64.929L62.9955 56.6704C62.1516 55.4857 60.5997 54.75 58.9599 54.75ZM86.0249 75.7762L93.1641 85.7561C94.384 87.4571 94.9919 89.3741 94.9999 91.2911C94.9999 97.2075 89.3006 102 82.2813 102H74.9781V108.76L62.9635 98.6351L74.9781 88.5101V95.2601H82.2813C83.9732 95.2601 85.545 94.4873 86.3809 93.2419C87.2128 91.9965 87.1848 90.4642 86.3089 89.2425L79.2497 79.3774L86.0249 75.7762Z"/>
</mask>
<path fill-rule="evenodd" clip-rule="evenodd" d="M94.251 176.142C98.3558 176.142 101.795 173.035 102.21 168.952L118.5 8.80958C118.979 4.0955 115.279 0 110.541 0H8.00093C3.22234 0 -0.490474 4.16192 0.0527949 8.90951L18.3779 169.052C18.8402 173.092 22.2596 176.142 26.326 176.142H94.251ZM66.963 129C61.2917 124.71 58.9519 119.165 58.9519 115.298H58.9439V106.175C58.9439 100.147 53.1446 95.2601 45.9934 95.2601H35.7065C34.0187 95.2601 32.4469 94.4873 31.615 93.2452C30.7791 91.9999 30.8031 90.471 31.679 89.2459L37.7503 80.7409L44.7535 84.3521L40.7739 70.4303L24.2518 73.7816L30.919 77.2174L24.8197 85.7663C23.6039 87.4639 22.9999 89.3741 22.9999 91.2878C22.9999 97.2176 28.7113 102 35.7145 102H46.2493C48.8451 102 50.9968 103.782 50.9968 105.962V115.298C50.9968 119.445 48.945 125.274 42.9337 129H66.963ZM58.9599 54.75C57.3241 54.75 55.7763 55.4891 54.9324 56.6737L48.0731 66.2858L41.2419 62.7622L48.0651 53.1941C50.3689 49.971 54.5044 48.0034 58.9639 48C63.4194 48 67.555 49.9676 69.8587 53.1874L75.6861 61.3312L82.5573 57.6795L78.8017 71.6452L62.2196 68.4829L68.9068 64.929L62.9955 56.6704C62.1516 55.4857 60.5997 54.75 58.9599 54.75ZM86.0249 75.7762L93.1641 85.7561C94.384 87.4571 94.9919 89.3741 94.9999 91.2911C94.9999 97.2075 89.3006 102 82.2813 102H74.9781V108.76L62.9635 98.6351L74.9781 88.5101V95.2601H82.2813C83.9732 95.2601 85.545 94.4873 86.3809 93.2419C87.2128 91.9965 87.1848 90.4642 86.3089 89.2425L79.2497 79.3774L86.0249 75.7762Z" fill="#1DEE3E"/>
<path d="M102.21 168.952L117.133 170.47L117.133 170.47L102.21 168.952ZM118.5 8.80958L103.577 7.2916L103.577 7.29161L118.5 8.80958ZM0.0527949 8.90951L-14.85 10.6148L0.0527949 8.90951ZM18.3779 169.052L33.2806 167.346L33.2806 167.346L18.3779 169.052ZM58.9519 115.298H73.9519V100.298H58.9519V115.298ZM66.963 129V144H111.66L76.0117 117.037L66.963 129ZM58.9439 115.298H43.9439V130.298H58.9439V115.298ZM31.615 93.2452L44.0776 84.8977L44.0736 84.8916L44.0695 84.8856L31.615 93.2452ZM31.679 89.2459L43.8811 97.9698L43.8875 97.961L31.679 89.2459ZM37.7503 80.7409L44.6249 67.409L33.0853 61.4585L25.5418 72.0258L37.7503 80.7409ZM44.7535 84.3521L37.8788 97.684L68.7097 113.582L59.1759 80.2295L44.7535 84.3521ZM40.7739 70.4303L55.1963 66.3076L51.3845 52.9725L37.7921 55.7296L40.7739 70.4303ZM24.2518 73.7816L21.2699 59.081L-20.5573 67.5653L17.3807 87.1153L24.2518 73.7816ZM30.919 77.2174L43.1298 85.9293L53.1949 71.822L37.7901 63.8837L30.919 77.2174ZM24.8197 85.7663L37.0146 94.5004L37.0225 94.4893L37.0305 94.4782L24.8197 85.7663ZM42.9337 129L35.0312 116.25L-9.73842 144H42.9337V129ZM54.9324 56.6737L67.1423 65.3869L67.1494 65.3769L54.9324 56.6737ZM48.0731 66.2858L41.197 79.6169L52.7392 85.5702L60.283 74.9989L48.0731 66.2858ZM41.2419 62.7622L29.0292 54.0531L18.9734 68.1541L34.3658 76.0934L41.2419 62.7622ZM48.0651 53.1941L35.8618 44.4718L35.8571 44.4784L35.8524 44.485L48.0651 53.1941ZM58.9639 48L58.9639 33L58.9526 33L58.9639 48ZM69.8587 53.1874L57.6597 61.9158L57.66 61.9162L69.8587 53.1874ZM75.6861 61.3312L63.4874 70.06L71.1293 80.7397L82.7255 74.5769L75.6861 61.3312ZM82.5573 57.6795L97.0427 61.5748L106.01 28.2287L75.5179 44.4339L82.5573 57.6795ZM78.8017 71.6452L75.9917 86.3797L89.6708 88.9884L93.2871 75.5406L78.8017 71.6452ZM62.2196 68.4829L55.1803 55.2372L17.5515 75.2346L59.4096 83.2173L62.2196 68.4829ZM68.9068 64.929L75.9461 78.1747L91.0782 70.1329L81.1042 56.1984L68.9068 64.929ZM62.9955 56.6704L50.7785 65.3735L50.7883 65.3873L50.7981 65.401L62.9955 56.6704ZM93.1641 85.7561L80.9643 94.4834L80.9695 94.4906L80.9746 94.4978L93.1641 85.7561ZM86.0249 75.7762L98.2247 67.049L90.5829 56.3665L78.9849 62.531L86.0249 75.7762ZM94.9999 91.2911H110V91.2598L110 91.2286L94.9999 91.2911ZM74.9781 102V87H59.9781V102H74.9781ZM74.9781 108.76L65.312 120.23L89.9781 141.017V108.76H74.9781ZM62.9635 98.6351L53.2973 87.1649L39.6864 98.6351L53.2973 110.105L62.9635 98.6351ZM74.9781 88.5101H89.9781V56.2533L65.312 77.0399L74.9781 88.5101ZM74.9781 95.2601H59.9781V110.26H74.9781V95.2601ZM86.3809 93.2419L98.8355 101.601L98.8448 101.588L98.854 101.574L86.3809 93.2419ZM86.3089 89.2425L74.1103 97.9715L74.1181 97.9824L86.3089 89.2425ZM79.2497 79.3774L72.2096 66.1321L57.0809 74.1732L67.0511 88.1063L79.2497 79.3774ZM87.2869 167.434C87.6504 163.86 90.6593 161.142 94.251 161.142V191.142C106.052 191.142 115.939 182.21 117.133 170.47L87.2869 167.434ZM103.577 7.29161L87.2869 167.434L117.133 170.47L133.423 10.3276L103.577 7.29161ZM110.541 15C106.395 15 103.157 11.4164 103.577 7.2916L133.423 10.3276C134.801 -3.22542 124.164 -15 110.541 -15V15ZM8.00093 15H110.541V-15H8.00093V15ZM14.9555 7.20419C15.4309 11.3583 12.1822 15 8.00093 15V-15C-5.73752 -15 -16.4118 -3.03448 -14.85 10.6148L14.9555 7.20419ZM33.2806 167.346L14.9555 7.20419L-14.85 10.6148L3.47515 170.757L33.2806 167.346ZM26.326 161.142C29.8841 161.142 32.8761 163.811 33.2806 167.346L3.47515 170.757C4.80425 182.372 14.6352 191.142 26.326 191.142V161.142ZM94.251 161.142H26.326V191.142H94.251V161.142ZM43.9519 115.298C43.9519 124.553 49.0789 134.281 57.9144 140.963L76.0117 117.037C74.8722 116.175 74.2992 115.365 74.0416 114.886C73.91 114.641 73.8747 114.51 73.879 114.525C73.8819 114.536 73.8986 114.599 73.9155 114.718C73.932 114.835 73.9519 115.029 73.9519 115.298H43.9519ZM58.9439 130.298H58.9519V100.298H58.9439V130.298ZM43.9439 106.175V115.298H73.9439V106.175H43.9439ZM45.9934 110.26C46.1967 110.26 45.969 110.336 45.4839 109.927C44.9668 109.491 43.9439 108.223 43.9439 106.175H73.9439C73.9439 89.5606 58.9218 80.2601 45.9934 80.2601V110.26ZM35.7065 110.26H45.9934V80.2601H35.7065V110.26ZM19.1523 101.593C23.1709 107.592 29.7834 110.26 35.7065 110.26V80.2601C38.254 80.2601 41.7228 81.382 44.0776 84.8977L19.1523 101.593ZM19.4768 80.522C14.9812 86.81 14.8249 95.1457 19.1604 101.605L44.0695 84.8856C46.7332 88.854 46.6249 94.132 43.8811 97.9698L19.4768 80.522ZM25.5418 72.0258L19.4705 80.5308L43.8875 97.961L49.9588 89.456L25.5418 72.0258ZM51.6282 71.0202L44.6249 67.409L30.8756 94.0728L37.8788 97.684L51.6282 71.0202ZM26.3516 74.5529L30.3312 88.4747L59.1759 80.2295L55.1963 66.3076L26.3516 74.5529ZM27.2337 88.4822L43.7558 85.1309L37.7921 55.7296L21.2699 59.081L27.2337 88.4822ZM37.7901 63.8837L31.1229 60.4479L17.3807 87.1153L24.0479 90.5511L37.7901 63.8837ZM37.0305 94.4782L43.1298 85.9293L18.7083 68.5054L12.609 77.0543L37.0305 94.4782ZM37.9999 91.2878C37.9999 92.6007 37.5676 93.7283 37.0146 94.5004L12.6249 77.0321C9.64013 81.1995 7.99993 86.1475 7.99993 91.2878H37.9999ZM35.7145 87C35.579 87 35.8607 86.9462 36.385 87.3872C36.945 87.858 37.9999 89.1802 37.9999 91.2878H7.99993C7.99993 107.832 22.9672 117 35.7145 117V87ZM46.2493 87H35.7145V117H46.2493V87ZM65.9968 105.962C65.9968 93.0419 54.439 87 46.2493 87V117C44.172 117 41.9307 116.3 39.9988 114.691C38.0466 113.066 35.9968 110.061 35.9968 105.962H65.9968ZM65.9968 115.298V105.962H35.9968V115.298H65.9968ZM50.8362 141.75C61.8302 134.935 65.9968 123.929 65.9968 115.298H35.9968C35.9968 115.12 36.0161 115.082 35.9998 115.15C35.9857 115.208 35.9554 115.301 35.8997 115.409C35.8475 115.51 35.7724 115.625 35.6581 115.75C35.548 115.87 35.3583 116.048 35.0312 116.25L50.8362 141.75ZM66.963 114H42.9337V144H66.963V114ZM67.1494 65.3769C64.7945 68.6825 61.4727 69.75 58.9599 69.75V39.75C53.1755 39.75 46.7581 42.2957 42.7154 47.9706L67.1494 65.3769ZM60.283 74.9989L67.1423 65.3869L42.7225 47.9606L35.8632 57.5726L60.283 74.9989ZM34.3658 76.0934L41.197 79.6169L54.9492 52.9546L48.118 49.4311L34.3658 76.0934ZM35.8524 44.485L29.0292 54.0531L53.4546 71.4714L60.2779 61.9033L35.8524 44.485ZM58.9526 33C50.371 33.0065 41.3715 36.7633 35.8618 44.4718L60.2684 61.9165C59.7919 62.5832 59.3274 62.8505 59.157 62.9317C58.9811 63.0155 58.9248 63 58.9753 63L58.9526 33ZM82.0577 44.459C76.5494 36.7605 67.5515 33 58.9639 33V63C59.0069 63 58.9472 63.0139 58.7709 62.93C58.6006 62.8489 58.1366 62.5822 57.6597 61.9158L82.0577 44.459ZM87.8848 52.6025L82.0574 44.4586L57.66 61.9162L63.4874 70.06L87.8848 52.6025ZM75.5179 44.4339L68.6466 48.0856L82.7255 74.5769L89.5967 70.9251L75.5179 44.4339ZM93.2871 75.5406L97.0427 61.5748L68.0719 53.7842L64.3163 67.7499L93.2871 75.5406ZM59.4096 83.2173L75.9917 86.3797L81.6117 56.9108L65.0296 53.7484L59.4096 83.2173ZM61.8675 51.6833L55.1803 55.2372L69.2588 81.7286L75.9461 78.1747L61.8675 51.6833ZM50.7981 65.401L56.7094 73.6596L81.1042 56.1984L75.1929 47.9398L50.7981 65.401ZM58.9599 69.75C56.4945 69.75 53.1557 68.7105 50.7785 65.3735L75.2125 47.9672C71.1475 42.261 64.705 39.75 58.9599 39.75V69.75ZM105.364 77.0289L98.2247 67.049L73.8251 84.5035L80.9643 94.4834L105.364 77.0289ZM110 91.2286C109.978 86.1192 108.343 81.1826 105.354 77.0145L80.9746 94.4978C80.4252 93.7316 80.0054 92.6291 80.0001 91.3537L110 91.2286ZM82.2813 117C95.0577 117 110 107.811 110 91.2911H79.9999C79.9999 89.1798 81.0551 87.8583 81.6139 87.3879C82.1402 86.945 82.423 87 82.2813 87V117ZM74.9781 117H82.2813V87H74.9781V117ZM89.9781 108.76V102H59.9781V108.76H89.9781ZM53.2973 110.105L65.312 120.23L84.6443 97.2899L72.6296 87.1649L53.2973 110.105ZM65.312 77.0399L53.2973 87.1649L72.6296 110.105L84.6443 99.9803L65.312 77.0399ZM89.9781 95.2601V88.5101H59.9781V95.2601H89.9781ZM82.2813 80.2601H74.9781V110.26H82.2813V80.2601ZM73.9263 84.8823C76.2739 81.3846 79.7331 80.2601 82.2813 80.2601V110.26C88.2132 110.26 94.816 107.59 98.8355 101.601L73.9263 84.8823ZM74.1181 97.9824C71.3762 94.1578 71.2492 88.8899 73.9078 84.9099L98.854 101.574C103.176 95.1031 102.993 86.7707 98.4997 80.5026L74.1181 97.9824ZM67.0511 88.1063L74.1103 97.9715L98.5075 80.5135L91.4482 70.6484L67.0511 88.1063ZM78.9849 62.531L72.2096 66.1321L86.2897 92.6227L93.065 89.0215L78.9849 62.531Z" fill="#1DEE3E" mask="url(#path-1-inside-1)"/>
</svg>
