<svg width="355" height="355" viewBox="0 0 355 355" fill="none" xmlns="http://www.w3.org/2000/svg">
<path fill-rule="evenodd" clip-rule="evenodd" d="M2.92893 170.287C-0.976314 174.192 -0.976307 180.524 2.92894 184.429L170.287 351.787C174.192 355.692 180.524 355.692 184.429 351.787L351.787 184.429C355.692 180.524 355.692 174.192 351.787 170.287L184.429 2.92893C180.524 -0.976312 174.192 -0.976309 170.287 2.92893L2.92893 170.287ZM212.251 278.142C216.356 278.142 219.795 275.035 220.21 270.952L236.5 110.81C236.979 106.095 233.279 102 228.541 102H126.001C121.222 102 117.51 106.162 118.053 110.91L136.378 271.052C136.84 275.092 140.26 278.142 144.326 278.142H212.251Z" fill="#1DEE3E"/>
<path d="M176.952 217.298C176.952 221.165 179.292 226.71 184.963 231H160.934C166.945 227.274 168.997 221.445 168.997 217.298V207.962C168.997 205.782 166.845 204 164.249 204H153.715C146.711 204 141 199.218 141 193.288C141 191.374 141.604 189.464 142.82 187.766L148.919 179.217L142.252 175.782L158.774 172.43L162.754 186.352L155.75 182.741L149.679 191.246C148.803 192.471 148.779 194 149.615 195.245C150.447 196.487 152.019 197.26 153.707 197.26H163.993C171.145 197.26 176.944 202.147 176.944 208.175V217.298H176.952ZM172.932 158.674C173.776 157.489 175.324 156.75 176.96 156.75C178.6 156.75 180.152 157.486 180.996 158.67L186.907 166.929L180.22 170.483L196.802 173.645L200.557 159.68L193.686 163.331L187.859 155.187C185.555 151.968 181.42 150 176.964 150C172.504 150.003 168.369 151.971 166.065 155.194L159.242 164.762L166.073 168.286L172.932 158.674V158.674ZM211.164 187.756L204.025 177.776L197.25 181.377L204.309 191.243C205.185 192.464 205.213 193.996 204.381 195.242C203.545 196.487 201.973 197.26 200.281 197.26H192.978V190.51L180.964 200.635L192.978 210.76V204H200.281C207.301 204 213 199.207 213 193.291C212.992 191.374 212.384 189.457 211.164 187.756V187.756Z" fill="#1DEE3E"/>
</svg>
