<svg width="422" height="490" viewBox="0 0 422 490" fill="none" xmlns="http://www.w3.org/2000/svg">
<g id="relodio">
<path id="Vector" d="M211.056 489.897C327.314 489.897 421.559 395.651 421.559 279.393C421.559 163.135 327.314 68.8897 211.056 68.8897C94.7977 68.8897 0.552032 163.135 0.552032 279.393C0.552032 395.651 94.7977 489.897 211.056 489.897Z" fill="#00A767"/>
<path id="Vector_2" d="M211.056 472.471C317.69 472.471 404.133 386.027 404.133 279.393C404.133 172.759 317.69 86.3155 211.056 86.3155C104.422 86.3155 17.9778 172.759 17.9778 279.393C17.9778 386.027 104.422 472.471 211.056 472.471Z" fill="white"/>
<path id="Vector_3" d="M210.359 305.88C224.602 305.88 236.149 294.334 236.149 280.09C236.149 265.847 224.602 254.3 210.359 254.3C196.115 254.3 184.568 265.847 184.568 280.09C184.568 294.334 196.115 305.88 210.359 305.88Z" fill="#00A767"/>
<path id="Vector_4" d="M215.935 96.0739H204.782V116.985H215.935V96.0739Z" fill="#00A767"/>
<path id="Vector_5" d="M215.935 443.196H204.782V464.107H215.935V443.196Z" fill="#00A767"/>
<path id="Vector_6" d="M47.2532 285.667V274.514H26.3422V285.667H47.2532Z" fill="#00A767"/>
<path id="Vector_7" d="M394.375 285.667V274.514H373.464V285.667H394.375Z" fill="#00A767"/>
<path id="ponteiro" d="M202.924 291.286L212.455 269.493L331.88 335.635L202.924 291.286Z" fill="#00A767"/>
<path id="Vector_8" d="M238.24 18.0064H183.871V80.7392H238.24V18.0064Z" fill="#00A767"/>
<path id="Vector_9" d="M211.056 35.4322C245.702 35.4322 273.788 27.6304 273.788 18.0064C273.788 8.38236 245.702 0.58057 211.056 0.58057C176.409 0.58057 148.323 8.38236 148.323 18.0064C148.323 27.6304 176.409 35.4322 211.056 35.4322Z" fill="#00A767"/>
</g>
</svg>
